<svg xmlns="http://www.w3.org/2000/svg" width="146.857" height="38.225" viewBox="0 0 146.857 38.225"><defs><style>.a{fill:#fff;}</style></defs><g transform="translate(-125.34 -87.44)"><g transform="translate(125.34 87.44)"><path class="a" d="M125.34,163.319V144.856a11.637,11.637,0,0,1,11.584-11.606,11.269,11.269,0,0,1,6.289,1.867,11.476,11.476,0,0,1,4.2,4.809,11.494,11.494,0,0,1,4.2-4.809,11.6,11.6,0,0,1,17.875,9.739v18.463h-2.232V144.856a9.364,9.364,0,1,0-18.728,0v18.463H146.3V144.856a9.364,9.364,0,1,0-18.728,0v18.463Z" transform="translate(-125.34 -126.252)"/><path class="a" d="M457.164,133.39a15.636,15.636,0,0,1,15.521,14.161q.08.832.081,1.441l-.02.406-.02.385H443.833a13.34,13.34,0,0,0,20.735,10.329,13.148,13.148,0,0,0,4.829-5.782h2.374a15.355,15.355,0,0,1-5.6,7.365,15.585,15.585,0,1,1-9.007-28.3Zm13.289,14.161a13.366,13.366,0,0,0-26.578,0h26.578Z" transform="translate(-393.252 -126.37)"/><path class="a" d="M690.671,139.927a11.495,11.495,0,0,1-17.611-9.678V106.43h2.252v5.214h15.359v2.232H675.312v16.374a9.208,9.208,0,0,0,15.358,6.856v2.822Z" transform="translate(-589.387 -103.529)"/><path class="a" d="M821.54,87.44h2.232v37.089H821.54Z" transform="translate(-715.184 -87.44)"/><path class="a" d="M862.159,313.07a1.546,1.546,0,0,1-1.137.466,1.592,1.592,0,0,1-1.622-1.622,1.552,1.552,0,0,1,.466-1.137,1.579,1.579,0,0,1,1.156-.487,1.514,1.514,0,0,1,1.137.487,1.546,1.546,0,0,1,.466,1.137A1.62,1.62,0,0,1,862.159,313.07Z" transform="translate(-747.26 -276.246)"/><path class="a" d="M906.021,225.274a6.338,6.338,0,0,1-9.711-5.336V206.8h1.242v2.875h8.469v1.231h-8.469v9.03a5.078,5.078,0,0,0,8.469,3.781Z" transform="translate(-778.532 -188.566)"/><path class="a" d="M990.109,225.63,981.4,242.2l-8.7-16.571h1.376l7.328,13.9,7.328-13.9Z" transform="translate(-843.252 -204.519)"/></g></g></svg>